{"glyphs":{":":{"x_min":0,"x_max":181,"ha":181,"o":"m 100 30 q 100 42 109 51 q 118 60 130 60 q 143 60 151 52 q 160 43 160 30 q 160 18 151 9 q 142 0 130 0 q 118 0 109 9 q 100 18 100 30 z m 100 176 q 100 188 109 197 q 118 206 130 206 q 143 206 151 198 q 160 189 160 176 q 160 164 151 155 q 142 146 130 146 q 118 146 109 155 q 100 164 100 176 z"},"$":{"x_min":0,"x_max":333,"ha":333,"o":"m 198 16 q 221 26 232 42 q 242 58 242 83 q 242 104 231 119 q 221 135 198 149 z m 131 257 l 131 366 q 116 357 108 345 q 101 332 101 314 q 101 297 108 283 q 116 269 131 257 z m 141 250 q 153 242 165 235 q 177 228 187 222 l 187 372 q 179 373 174 374 q 169 374 166 374 q 160 374 154 373 q 148 373 141 371 z m 187 14 l 187 156 q 184 158 177 162 q 151 177 141 184 l 141 19 q 149 16 156 14 q 164 12 171 12 q 175 12 185 14 q 186 14 187 14 z m 131 -104 l 131 -3 q 93 3 73 21 q 53 39 53 67 q 53 89 67 102 q 80 115 110 122 q 104 111 102 101 q 99 91 99 83 q 99 65 108 49 q 116 33 131 24 l 131 191 q 96 213 81 237 q 65 260 65 289 q 65 319 82 342 q 99 365 131 378 l 131 486 l 141 486 l 141 381 q 153 383 165 385 q 176 386 187 386 l 187 486 l 198 486 l 198 386 q 234 381 251 366 q 269 352 269 328 q 269 315 263 304 q 258 294 249 290 l 221 278 q 225 288 226 299 q 228 309 228 320 q 228 334 220 346 q 213 358 198 368 l 198 216 q 244 187 262 164 q 281 140 281 112 q 281 78 259 49 q 237 21 198 6 l 198 -104 l 187 -104 l 187 2 q 175 0 164 -2 q 153 -3 141 -3 l 141 -104 z"},"?":{"x_min":0,"x_max":282,"ha":282,"o":"m 125 125 q 126 166 129 186 q 132 207 139 221 q 145 233 174 275 q 204 317 204 349 q 204 379 187 396 q 170 412 139 412 q 116 412 93 398 q 70 383 70 374 q 70 374 91 367 q 113 361 113 341 q 113 330 105 323 q 98 317 86 317 q 72 317 64 327 q 56 337 56 355 q 56 383 85 404 q 114 424 156 424 q 202 424 230 402 q 258 380 258 344 q 258 329 253 316 q 249 303 239 292 q 227 277 197 252 q 168 227 156 212 q 145 198 140 178 q 135 157 135 125 z m 100 30 q 100 42 109 51 q 118 60 130 60 q 143 60 151 52 q 160 43 160 30 q 160 18 151 9 q 142 0 130 0 q 118 0 109 9 q 100 18 100 30 z"},"<":{"x_min":0,"x_max":833,"ha":833,"o":"m 704 549 l 704 505 l 194 298 l 704 91 l 704 48 l 129 283 l 129 313 z"},"'":{"x_min":0,"x_max":167,"ha":167,"o":"m 90 425 l 76 425 l 47 646 q 46 649 46 654 q 46 658 46 668 q 46 691 55 702 q 64 714 83 714 q 101 714 111 702 q 121 690 121 668 q 121 665 121 660 q 120 656 119 646 z"},"=":{"x_min":0,"x_max":833,"ha":833,"o":"m 124 229 l 709 229 l 709 189 l 124 189 z m 124 406 l 709 406 l 709 367 l 124 367 z"},"a":{"x_min":0,"x_max":338,"ha":338,"o":"m 216 140 q 216 167 204 182 q 191 197 168 197 q 140 197 121 170 q 101 144 101 103 q 101 69 116 49 q 131 29 156 29 q 173 29 189 40 q 205 51 216 71 z m 280 220 l 280 212 q 271 205 268 194 q 264 183 264 157 l 264 64 q 264 38 268 29 q 271 20 281 20 q 310 20 349 58 q 389 97 422 159 l 430 156 q 393 86 344 43 q 294 0 256 0 q 238 0 227 14 q 217 29 216 55 q 197 27 174 14 q 150 0 124 0 q 92 0 73 22 q 53 44 53 80 q 53 129 89 167 q 125 206 170 206 q 183 206 197 202 q 211 197 226 188 z"},"L":{"x_min":0,"x_max":546,"ha":546,"o":"m 258 45 q 231 22 198 10 q 165 -1 125 -1 q 73 -1 40 16 q 7 33 7 59 q 7 88 42 109 q 78 131 130 131 q 166 131 200 121 q 235 112 273 91 q 276 100 277 108 q 278 115 278 124 q 278 151 266 181 q 254 210 222 256 q 214 268 197 291 q 122 393 122 456 q 122 532 180 585 q 238 638 322 638 q 412 638 473 586 q 535 533 535 459 q 535 412 503 381 q 470 350 421 350 q 371 350 331 383 q 291 415 291 453 q 291 475 305 490 q 319 506 338 506 q 344 506 348 505 q 353 504 356 502 l 378 486 q 354 484 339 469 q 324 453 324 430 q 324 403 344 385 q 365 367 394 367 q 434 367 459 396 q 484 425 484 472 q 484 540 437 585 q 391 630 321 630 q 261 630 221 591 q 181 552 181 492 q 181 434 244 339 q 255 322 261 313 q 284 278 294 246 q 305 213 305 180 q 305 154 300 131 q 294 107 283 85 q 365 41 399 28 q 433 16 460 16 q 508 16 550 51 q 591 86 630 159 l 639 156 q 597 75 544 37 q 492 -2 424 -2 q 387 -2 345 10 q 303 21 258 45 z m 249 51 q 184 89 152 103 q 121 116 99 116 q 73 116 57 106 q 41 96 41 80 q 41 57 73 37 q 106 16 147 16 q 179 16 206 25 q 232 34 249 51 z"},"3":{"x_min":0,"x_max":310,"ha":310,"o":"m 100 204 q 148 209 173 232 q 198 256 198 295 q 198 329 181 350 q 164 371 136 371 q 115 371 101 358 q 86 345 86 325 q 86 304 97 292 q 109 279 128 279 q 133 279 135 279 q 138 279 140 280 l 120 259 q 110 255 97 255 q 76 255 63 269 q 50 283 50 304 q 50 337 80 360 q 109 383 154 383 q 198 383 225 364 q 252 346 252 316 q 252 280 226 254 q 201 227 144 205 q 203 202 236 180 q 269 159 269 123 q 269 74 227 37 q 184 0 127 0 q 85 0 59 20 q 33 40 33 72 q 33 92 44 103 q 54 114 74 114 q 80 114 85 113 q 91 112 97 111 q 83 97 78 86 q 73 75 73 62 q 73 40 90 24 q 107 9 132 9 q 167 9 189 35 q 211 61 211 103 q 211 148 186 172 q 161 196 114 196 l 100 196 z"},";":{"x_min":0,"x_max":181,"ha":181,"o":"m 79 5 l 138 58 q 149 47 155 36 q 160 24 160 9 q 160 -21 139 -51 q 117 -81 78 -106 l 78 -96 q 103 -78 116 -60 q 129 -42 129 -24 q 129 -10 122 -1 q 116 8 102 12 l 86 -2 z m 100 176 q 100 188 109 197 q 118 206 130 206 q 143 206 151 198 q 160 189 160 176 q 160 164 151 155 q 142 146 130 146 q 118 146 109 155 q 100 164 100 176 z"},"J":{"x_min":0,"x_max":495,"ha":495,"o":"m 231 -8 q 233 -2 234 3 q 235 8 235 15 q 235 48 214 68 q 192 88 157 88 q 112 88 79 52 q 47 16 47 -38 q 47 -96 83 -131 q 119 -167 178 -167 q 253 -167 301 -99 q 348 -30 348 80 q 348 122 336 202 q 323 281 323 319 q 323 403 356 479 q 390 556 450 609 q 307 570 227 501 q 146 432 146 350 q 146 306 168 281 q 190 257 230 257 q 245 257 261 263 q 276 270 294 282 l 281 243 q 275 227 260 218 q 244 209 221 209 q 177 209 147 243 q 118 277 118 329 q 118 422 208 500 q 297 578 457 620 l 462 624 q 485 639 489 639 q 490 639 492 637 q 493 636 493 634 q 493 629 487 624 q 481 620 469 616 q 428 574 406 511 q 383 449 383 378 q 383 333 398 247 q 413 162 413 119 q 413 62 399 13 q 385 -35 359 -69 q 318 -121 266 -149 q 214 -178 161 -178 q 96 -178 55 -143 q 13 -107 13 -53 q 13 8 65 56 q 117 104 183 104 q 223 104 251 84 q 280 63 280 37 q 280 24 274 15 q 269 7 256 2 z"},"V":{"x_min":0,"x_max":595,"ha":595,"o":"m 285 593 q 262 581 241 574 q 221 568 202 568 q 167 568 114 595 q 62 622 36 622 q -3 622 -31 598 q -59 574 -59 540 q -59 515 -45 500 q -31 485 -8 485 q 18 485 34 502 q 50 519 53 549 q 71 543 79 536 q 86 529 86 518 q 86 497 66 482 q 45 468 15 468 q -23 468 -46 487 q -69 506 -69 538 q -69 582 -32 609 q 5 637 64 637 q 101 637 154 612 q 206 586 228 586 q 248 586 268 594 q 288 602 306 616 l 307 607 q 258 549 232 472 q 206 395 206 306 q 206 181 252 99 q 298 17 365 17 q 433 17 480 101 q 527 185 527 313 q 527 435 495 511 q 463 587 414 587 q 393 587 379 575 q 366 563 366 544 q 366 522 400 480 q 410 467 416 459 q 427 445 432 431 q 437 417 437 403 q 437 385 430 370 q 423 354 409 339 l 401 339 q 411 352 414 360 q 418 368 418 376 q 418 395 396 426 l 396 426 q 393 430 387 439 q 348 494 348 526 q 348 557 369 578 q 390 598 421 598 q 482 598 518 540 q 554 482 554 383 q 554 208 494 104 q 434 0 335 0 q 251 0 197 71 q 142 143 142 254 q 142 343 178 428 q 214 514 285 593 z"},"\"":{"x_min":0,"x_max":325,"ha":325,"o":"m 248 425 l 234 425 l 206 646 q 205 652 205 657 q 204 663 204 668 q 204 691 213 702 q 223 714 241 714 q 259 714 269 702 q 279 690 279 668 q 279 665 279 660 q 278 656 277 646 z m 91 425 l 77 425 l 48 646 q 47 652 46 657 q 46 663 46 668 q 46 690 56 702 q 65 714 84 714 q 102 714 112 702 q 121 690 121 668 q 121 665 121 660 q 120 656 119 646 z"},"7":{"x_min":0,"x_max":287,"ha":287,"o":"m 81 -6 q 86 33 126 121 q 167 209 239 337 q 226 327 211 322 q 196 316 183 316 q 163 316 135 329 q 106 342 101 342 q 85 342 75 321 q 64 300 58 258 l 49 259 q 56 296 60 330 q 65 364 67 390 l 76 390 q 75 384 74 374 q 70 340 67 326 q 81 350 96 362 q 112 375 127 375 q 146 375 177 356 q 208 338 221 338 q 227 338 232 341 q 237 344 241 349 l 260 389 l 269 387 q 219 270 190 175 q 161 80 155 13 z"},"S":{"x_min":0,"x_max":514,"ha":514,"o":"m 241 124 q 255 136 261 148 q 268 161 268 176 q 268 212 240 238 q 212 264 174 264 q 137 264 113 239 q 89 214 89 176 q 89 112 141 65 q 194 18 268 18 q 339 18 389 63 q 439 109 439 173 q 439 231 406 268 q 373 305 263 350 q 173 387 140 424 q 107 460 107 514 q 107 566 146 602 q 184 637 242 637 q 272 637 322 613 q 372 588 393 588 q 414 588 439 601 q 465 613 495 638 l 500 630 q 458 597 421 580 q 385 563 355 563 q 321 563 272 591 q 224 619 204 619 q 174 619 151 594 q 128 569 128 535 q 128 472 281 414 q 299 407 309 403 q 399 368 436 325 q 472 283 472 216 q 472 123 405 62 q 338 1 238 1 q 153 1 100 41 q 46 80 46 141 q 46 195 90 237 q 134 278 193 278 q 241 278 275 253 q 308 228 308 193 q 308 173 294 154 q 280 135 263 130 z"},"}":{"x_min":0,"x_max":500,"ha":500,"o":"m 87 740 l 92 740 q 196 740 236 704 q 275 668 275 571 l 275 463 q 275 387 303 359 q 332 332 414 324 l 414 297 q 333 291 304 262 q 275 233 275 158 l 275 50 q 275 -47 236 -83 q 196 -119 92 -119 l 87 -119 l 87 -97 q 162 -96 189 -70 q 216 -44 216 32 l 216 104 q 216 214 247 254 q 278 294 364 310 q 279 325 247 366 q 216 406 216 516 l 216 588 q 216 664 189 690 q 162 716 87 717 z"},"Z":{"x_min":0,"x_max":558,"ha":558,"o":"m 128 80 q 127 80 125 81 q 116 82 111 82 q 83 82 61 64 q 39 47 39 26 q 39 18 43 13 q 47 9 54 9 q 68 9 86 26 q 104 42 128 80 z m 144 103 l 284 313 q 271 318 256 321 q 242 324 227 324 q 217 324 206 320 q 195 315 183 306 l 183 315 q 207 336 229 348 q 252 359 273 359 q 283 359 292 357 q 302 355 311 352 l 448 557 q 434 554 418 552 q 401 550 383 550 q 328 550 253 578 q 179 607 152 607 q 117 607 92 584 q 67 562 67 530 q 67 500 92 477 q 117 454 150 454 q 163 454 176 459 q 189 464 206 476 l 184 447 q 176 436 158 428 q 141 420 122 420 q 87 420 66 442 q 45 464 45 501 q 45 557 93 598 q 141 639 208 639 q 233 639 261 632 q 289 625 327 608 q 336 604 355 595 q 416 567 446 567 l 455 567 q 468 595 480 607 q 492 620 504 620 q 509 620 511 618 q 514 615 514 611 q 514 602 504 592 q 493 581 461 559 l 320 349 q 336 343 350 340 q 363 337 373 337 q 385 337 396 342 q 408 346 421 356 l 421 346 q 398 325 375 313 q 351 302 330 302 q 320 302 311 304 q 302 306 293 309 l 155 102 q 225 99 309 68 q 394 36 416 36 q 453 36 478 60 q 503 84 503 119 q 503 150 484 170 q 464 191 436 191 q 419 191 405 186 q 391 181 377 169 l 402 207 q 406 214 422 220 q 439 227 456 227 q 489 227 509 207 q 528 187 528 152 q 528 90 473 44 q 418 -2 344 -2 q 295 -2 228 33 q 160 69 137 77 q 106 31 88 15 q 70 -1 51 -1 q 41 -1 35 6 q 29 13 29 25 q 29 53 62 76 q 95 100 144 103 z"},"x":{"x_min":0,"x_max":333,"ha":333,"o":"m 45 9 l 80 46 q 89 40 95 38 q 101 35 106 35 q 119 35 131 47 q 143 60 157 88 q 143 125 127 141 q 112 157 91 157 l 83 157 l 101 204 q 104 205 107 206 q 110 206 116 206 q 134 206 150 190 q 167 174 184 137 q 207 178 221 192 q 236 206 255 206 q 263 206 270 203 q 278 201 287 195 l 262 160 q 252 168 245 172 q 237 176 232 176 q 224 176 216 167 q 207 157 190 127 q 216 68 236 45 q 255 23 278 23 q 308 23 346 60 q 384 97 417 159 l 426 156 q 388 85 339 42 q 290 0 248 0 q 221 0 202 17 q 183 33 162 75 q 138 32 120 16 q 102 0 80 0 q 73 0 64 2 q 56 4 45 9 z"},")":{"x_min":0,"x_max":336,"ha":336,"o":"m 76 -275 q 158 -207 198 -96 q 238 15 238 174 q 238 333 198 443 q 159 553 76 622 l 76 637 q 182 560 237 442 q 292 324 292 174 q 292 26 237 -92 q 182 -209 76 -287 z"},"&":{"x_min":0,"x_max":537,"ha":537,"o":"m 255 278 q 293 311 312 341 q 330 371 330 401 q 330 436 314 456 q 298 476 270 476 q 247 476 229 454 q 210 431 210 401 q 210 377 222 345 q 233 312 255 278 z m 334 55 q 299 102 270 146 q 242 190 218 235 q 191 213 178 189 q 165 165 165 139 q 165 95 196 59 q 227 24 265 24 q 279 24 297 32 q 314 40 334 55 z m 340 48 q 309 24 279 12 q 249 0 220 0 q 176 0 149 26 q 121 52 121 94 q 121 127 144 165 q 167 203 213 244 q 195 281 186 313 q 177 345 177 371 q 177 421 211 456 q 245 490 294 490 q 327 490 348 472 q 369 454 369 427 q 369 397 341 357 q 313 318 259 270 q 283 224 311 179 q 339 134 372 90 q 395 115 406 141 q 417 166 417 191 q 417 212 407 225 q 397 238 380 238 q 375 238 366 236 q 358 234 347 231 l 364 255 q 370 262 378 265 q 386 269 395 269 q 418 269 432 255 q 445 241 445 216 q 445 187 428 153 q 412 120 378 83 q 399 58 416 46 q 432 35 446 35 q 459 35 469 46 q 480 57 496 90 l 504 86 q 483 43 461 22 q 438 0 416 0 q 398 0 379 12 q 359 24 340 48 z"},"_":{"x_min":0,"x_max":500,"ha":500,"o":"m 0 -197 l 500 -197 l 500 -236 l 0 -236 z"},"v":{"x_min":0,"x_max":336,"ha":336,"o":"m 164 -4 q 165 -3 165 -1 q 165 0 165 3 q 165 27 104 122 q 89 145 81 157 l 110 228 l 115 228 q 114 226 114 223 q 114 221 114 216 q 114 189 156 125 q 183 83 197 57 q 224 100 237 141 q 251 183 251 223 q 251 271 229 302 q 208 332 169 337 l 205 359 q 206 359 207 360 q 209 360 215 360 q 245 360 267 333 q 288 307 288 269 q 288 225 264 166 q 240 108 181 13 q 192 11 200 10 q 208 9 214 9 q 280 9 329 45 q 378 81 419 159 l 428 157 q 384 73 332 37 q 280 0 205 0 q 199 0 192 1 q 185 2 176 4 z"},"O":{"x_min":0,"x_max":542,"ha":542,"o":"m 320 401 q 316 385 311 375 q 305 364 298 358 q 293 356 289 355 q 284 354 280 354 q 237 354 209 387 q 180 420 180 470 q 180 537 225 587 q 270 636 328 636 q 403 636 452 562 q 501 488 501 371 q 501 307 487 244 q 473 181 449 136 q 413 67 365 34 q 317 0 257 0 q 166 0 108 76 q 50 152 50 273 q 50 359 78 435 q 106 510 161 574 l 160 566 q 129 518 114 464 q 99 411 99 348 q 99 212 156 123 q 214 34 298 34 q 378 34 425 111 q 472 187 472 319 q 472 440 422 522 q 372 605 304 605 q 258 605 229 576 q 200 547 200 501 q 200 458 228 428 q 256 399 299 399 q 302 399 307 399 q 312 400 320 401 z"},"(":{"x_min":0,"x_max":336,"ha":336,"o":"m 338 625 q 256 557 216 447 q 176 336 176 176 q 176 17 216 -93 q 255 -204 338 -273 l 338 -287 q 231 -209 177 -92 q 122 25 122 176 q 122 325 177 442 q 232 560 338 637 z"},"C":{"x_min":0,"x_max":449,"ha":449,"o":"m 533 159 l 541 156 q 497 71 443 34 q 390 -3 312 -3 q 198 -3 123 72 q 49 146 49 262 q 49 336 80 410 q 112 485 170 549 q 209 592 254 615 q 299 638 343 638 q 393 638 422 611 q 451 583 451 536 q 451 497 436 461 q 421 426 392 395 q 368 370 341 356 q 314 342 289 342 q 261 342 244 359 q 226 376 226 404 q 226 417 230 426 q 234 435 240 439 l 271 460 q 267 451 265 443 q 263 435 263 426 q 263 402 278 388 q 293 374 319 374 q 361 374 391 408 q 422 442 422 489 q 422 540 388 574 q 354 609 305 609 q 223 609 166 528 q 110 448 110 325 q 110 182 173 97 q 235 12 339 12 q 400 12 447 48 q 495 83 533 159 z"},"W":{"x_min":0,"x_max":729,"ha":729,"o":"m 402 63 q 369 28 343 12 q 317 -3 291 -3 q 227 -3 186 63 q 144 129 144 235 q 144 337 187 423 q 230 508 322 588 q 293 572 266 563 q 240 555 216 555 q 203 555 188 559 q 174 563 156 573 q 146 578 127 589 q 75 620 43 620 q 8 620 -22 593 q -52 566 -52 535 q -52 510 -37 494 q -22 479 2 479 q 27 479 44 492 q 62 505 62 522 q 62 527 59 539 q 59 542 58 544 q 60 544 61 545 q 62 545 66 545 q 77 545 83 537 q 90 529 90 517 q 90 491 70 475 q 50 459 18 459 q -17 459 -39 479 q -62 500 -62 530 q -62 574 -22 605 q 18 636 77 636 q 114 636 170 606 q 226 576 250 576 q 270 576 293 584 q 317 593 349 611 l 351 607 q 280 540 246 457 q 212 374 212 266 q 212 153 240 86 q 269 18 315 18 q 333 18 353 31 q 373 43 397 71 q 389 94 385 123 q 382 151 382 191 q 382 235 384 282 q 386 329 390 379 q 401 387 424 405 q 447 423 455 429 l 455 424 q 455 413 450 339 q 445 266 445 204 q 445 106 461 57 q 477 8 508 8 q 528 8 550 24 q 572 40 592 69 q 622 112 638 173 q 654 233 654 303 q 654 388 628 461 q 602 534 553 587 q 538 604 519 614 q 501 623 484 623 q 460 623 446 609 q 431 596 431 573 q 431 550 448 532 q 464 515 507 494 q 555 471 575 444 q 595 417 595 379 q 595 369 595 362 q 595 356 594 349 l 589 349 q 583 386 563 412 q 542 438 488 468 q 442 494 428 512 q 414 531 414 557 q 414 591 438 614 q 461 636 498 636 q 533 636 571 613 q 608 589 639 548 q 663 516 676 467 q 689 418 689 361 q 689 271 670 201 q 650 131 611 76 q 582 35 553 16 q 525 -3 495 -3 q 467 -3 444 13 q 421 30 402 63 z"},"A":{"x_min":0,"x_max":565,"ha":565,"o":"m 395 94 q 353 46 309 23 q 266 0 219 0 q 143 0 96 66 q 50 131 50 241 q 50 333 81 412 q 112 490 174 554 q 212 594 265 617 q 317 640 371 640 q 446 640 496 601 q 546 562 546 505 q 546 462 523 430 q 501 397 455 372 l 455 75 q 455 41 462 28 q 469 16 486 16 q 527 16 570 54 q 613 92 648 159 l 657 156 q 617 81 567 40 q 517 0 463 0 q 430 0 413 24 q 396 47 395 94 z m 395 495 l 469 521 l 469 511 q 461 504 458 496 q 455 488 455 471 l 455 382 q 483 398 498 425 q 512 452 512 489 q 512 552 473 591 q 433 630 369 630 q 324 630 276 604 q 229 579 195 535 q 154 482 134 415 q 114 348 114 264 q 114 159 156 93 q 198 28 263 28 q 295 28 328 47 q 360 66 395 106 l 395 358 l 388 358 l 378 358 q 341 358 317 374 q 294 390 294 415 q 294 432 304 442 q 314 453 329 453 l 332 453 l 361 450 q 350 440 344 430 q 339 420 339 408 q 339 390 352 378 q 365 367 386 367 q 388 367 391 368 q 394 368 395 368 z"},"f":{"x_min":0,"x_max":222,"ha":222,"o":"m 132 223 q 182 297 207 363 q 233 428 233 482 q 233 508 225 521 q 217 535 202 535 q 169 535 150 482 q 132 429 132 332 z m 132 -4 q 186 15 230 56 q 274 97 306 159 l 315 156 q 282 92 236 49 q 189 6 132 -14 l 132 -222 l 67 -241 l 67 -233 q 76 -226 80 -212 q 84 -199 84 -177 l 84 -16 q 57 -15 41 -7 q 25 1 25 15 q 25 23 29 27 q 33 31 40 31 q 44 31 48 27 q 52 23 52 19 l 52 7 q 52 0 59 -4 q 67 -7 84 -8 l 84 317 q 84 415 124 482 q 165 550 217 550 q 241 550 254 533 q 267 517 267 486 q 267 444 232 372 q 198 300 132 205 z"},"Q":{"x_min":0,"x_max":560,"ha":560,"o":"m 270 56 q 221 83 182 96 q 142 109 111 109 q 82 109 64 98 q 46 88 46 71 q 46 47 70 31 q 95 15 133 15 q 166 15 201 26 q 236 36 270 56 z m 280 50 q 235 26 193 13 q 151 0 116 0 q 74 0 47 17 q 20 34 20 59 q 20 86 55 105 q 89 124 143 124 q 174 124 213 115 q 252 106 306 86 q 370 155 403 241 q 437 328 437 422 q 437 522 400 575 q 363 628 294 628 q 217 628 164 570 q 111 512 111 429 q 111 372 138 336 q 166 301 210 301 q 247 301 271 327 q 296 354 296 394 q 296 424 283 443 q 270 462 249 462 q 245 462 237 461 q 230 459 227 459 l 252 484 q 260 488 272 488 q 298 488 314 469 q 331 450 331 420 q 331 368 290 328 q 250 289 194 289 q 137 289 98 326 q 60 364 60 420 q 60 446 68 472 q 75 497 90 520 q 126 576 182 607 q 237 638 300 638 q 395 638 451 579 q 507 520 507 419 q 507 325 460 241 q 414 158 317 81 q 333 74 363 61 q 457 20 481 20 q 526 20 566 54 q 606 88 644 159 l 653 156 q 610 76 559 38 q 508 0 441 0 q 408 0 369 12 q 331 24 280 50 z"},"w":{"x_min":0,"x_max":454,"ha":454,"o":"m 141 -4 l 141 3 q 141 23 115 72 q 89 121 78 150 l 104 228 l 110 228 q 108 224 108 219 q 107 215 107 211 q 107 188 134 137 q 162 86 172 57 l 251 228 l 257 228 q 256 224 255 219 q 254 213 254 211 q 254 179 296 109 q 316 77 327 57 q 349 93 361 133 q 373 173 373 211 q 373 265 349 298 q 325 331 284 333 l 319 356 q 320 357 323 357 q 327 358 333 358 q 364 358 385 329 q 407 301 407 258 q 407 219 384 159 q 361 99 313 12 q 318 11 325 10 q 332 9 338 9 q 399 9 448 46 q 498 83 537 159 l 546 157 q 503 75 452 38 q 400 0 332 0 q 328 0 312 3 q 308 3 306 4 l 294 -4 l 294 1 q 294 18 266 65 q 238 112 223 144 l 155 4 z"},"-":{"x_min":0,"x_max":428,"ha":428,"o":"m 322 88 l 150 88 l 178 130 l 350 130 z"},"E":{"x_min":0,"x_max":507,"ha":507,"o":"m 226 417 q 249 396 269 387 q 289 377 307 377 q 324 377 335 384 q 346 390 346 399 q 346 412 330 419 q 313 427 287 427 q 273 427 259 425 q 244 422 226 417 z m 220 424 q 236 430 254 433 q 272 436 292 436 q 321 436 338 426 q 356 416 356 399 q 356 385 338 375 q 320 366 290 366 q 268 366 242 374 q 216 382 187 398 q 146 375 124 334 q 102 292 102 239 q 102 147 158 82 q 214 16 292 16 q 353 16 395 56 q 436 96 436 156 q 436 208 407 242 q 377 276 332 276 q 303 276 283 257 q 263 237 263 209 q 263 185 278 168 q 293 152 314 152 q 321 152 329 154 q 336 157 347 162 l 326 130 q 321 124 315 122 q 309 119 298 119 q 273 119 257 137 q 240 155 240 183 q 240 229 278 264 q 316 300 366 300 q 414 300 443 270 q 472 239 472 190 q 472 110 409 55 q 347 0 253 0 q 158 0 97 57 q 36 113 36 200 q 36 262 72 314 q 108 366 178 404 q 152 424 140 448 q 127 471 127 498 q 127 556 174 597 q 222 638 287 638 q 322 638 367 617 q 412 595 418 595 q 426 595 440 605 q 455 615 473 633 l 473 622 q 447 594 423 579 q 400 564 384 564 q 362 564 317 593 q 271 621 250 621 q 219 621 197 593 q 174 565 174 526 q 174 499 186 473 q 197 447 220 424 z"},"s":{"x_min":0,"x_max":280,"ha":280,"o":"m 122 222 q 169 187 191 158 q 212 129 212 100 q 212 71 197 47 q 181 23 154 9 l 166 9 q 227 9 276 46 q 325 83 364 159 l 372 156 q 332 79 281 39 q 230 0 170 0 q 161 0 150 0 q 140 0 127 1 q 123 0 118 0 q 114 0 110 0 q 84 0 60 15 q 35 30 35 39 q 35 43 46 57 q 58 70 75 84 q 79 51 94 33 q 108 15 132 15 q 154 15 169 30 q 184 44 184 67 q 184 93 164 119 q 143 145 101 172 q 79 128 55 95 q 30 62 0 38 l 0 49 q 40 84 71 137 q 103 189 125 261 l 134 259 z"},">":{"x_min":0,"x_max":833,"ha":833,"o":"m 129 549 l 704 313 l 704 283 l 129 48 l 129 91 l 639 298 l 129 505 z"},"l":{"x_min":0,"x_max":222,"ha":222,"o":"m 132 223 q 182 297 207 363 q 233 428 233 482 q 233 508 225 521 q 217 535 202 535 q 169 535 150 482 q 132 429 132 332 z m 132 81 q 132 42 138 31 q 144 19 160 19 q 191 19 232 58 q 273 96 306 159 l 315 156 q 277 84 227 42 q 177 0 131 0 q 107 0 95 18 q 84 35 84 73 l 84 317 q 84 416 124 483 q 164 550 217 550 q 241 550 254 533 q 267 517 267 486 q 267 444 232 372 q 198 300 132 205 z"},"8":{"x_min":0,"x_max":310,"ha":310,"o":"m 133 191 q 110 175 100 156 q 89 138 89 115 q 89 77 116 46 q 144 16 178 16 q 202 16 219 33 q 237 50 237 75 q 237 99 217 123 q 196 146 133 191 z m 180 222 q 198 236 207 252 q 216 268 216 288 q 216 325 197 349 q 177 372 147 372 q 125 372 110 358 q 95 345 95 324 q 95 300 117 274 q 138 249 180 222 z m 125 196 q 88 222 73 244 q 58 266 58 292 q 58 332 89 358 q 121 384 169 384 q 210 384 236 363 q 262 343 262 309 q 262 285 244 263 q 227 242 187 218 q 230 190 251 163 q 271 135 271 104 q 271 59 235 29 q 199 0 144 0 q 97 0 68 24 q 39 48 39 87 q 39 117 61 145 q 83 173 125 196 z"},"\\":{"x_min":0,"x_max":292,"ha":292,"o":"m 313 -93 l 292 -93 l -63 637 l -42 637 z"},"e":{"x_min":0,"x_max":285,"ha":285,"o":"m 124 68 q 160 89 178 111 q 196 132 196 154 q 196 172 185 183 q 175 194 158 194 q 136 194 122 176 q 108 158 108 129 q 108 112 112 96 q 116 81 124 68 z m 368 159 l 377 156 q 336 78 286 39 q 235 0 175 0 q 125 0 95 27 q 65 55 65 99 q 65 144 97 175 q 130 206 176 206 q 198 206 213 194 q 227 182 227 163 q 227 140 203 115 q 179 89 129 61 q 145 40 165 28 q 185 17 207 17 q 249 17 290 54 q 332 90 368 159 z"},"b":{"x_min":0,"x_max":319,"ha":319,"o":"m 124 217 q 175 292 201 358 q 227 424 227 481 q 227 508 219 521 q 210 535 194 535 q 161 535 143 481 q 124 428 124 330 z m 124 140 l 124 85 q 124 44 131 29 q 138 13 155 13 q 181 13 199 41 q 218 68 218 110 q 218 143 208 163 q 198 183 181 183 q 168 183 153 172 q 137 160 124 140 z m 75 73 l 75 317 q 75 415 116 482 q 158 550 211 550 q 235 550 248 533 q 261 517 261 486 q 261 442 226 370 q 191 297 124 202 l 124 154 q 144 180 166 193 q 188 207 209 207 q 232 207 247 190 q 261 174 261 148 q 261 109 239 72 q 216 34 179 10 q 185 9 189 8 q 194 8 198 8 q 263 8 313 45 q 363 82 403 159 l 412 157 q 368 74 317 37 q 265 0 194 0 q 186 0 166 3 q 163 4 162 4 q 152 2 146 2 q 140 1 136 1 q 106 1 91 19 q 75 37 75 73 z"},"%":{"x_min":0,"x_max":532,"ha":532,"o":"m 354 -43 q 379 -43 396 -18 q 412 7 412 48 q 412 92 399 115 q 386 137 361 137 q 332 137 314 113 q 297 88 297 46 q 297 1 311 -21 q 326 -43 354 -43 z m 333 -54 q 296 -54 271 -30 q 245 -6 245 28 q 245 74 284 111 q 322 148 371 148 q 411 148 438 126 q 464 104 464 72 q 464 23 424 -15 q 385 -54 333 -54 z m 165 253 q 193 253 209 278 q 225 303 225 346 q 225 388 212 410 q 199 433 175 433 q 146 433 128 408 q 110 383 110 341 q 110 298 124 276 q 138 253 165 253 z m 442 460 l 102 -59 l 87 -58 l 400 422 q 377 407 355 399 q 333 392 310 392 q 294 392 284 395 q 274 397 267 402 q 272 391 275 383 q 277 375 277 367 q 277 320 238 281 q 199 242 151 242 q 111 242 85 265 q 58 289 58 324 q 58 370 97 407 q 136 444 186 444 q 204 444 219 439 q 235 435 248 425 q 266 412 281 406 q 297 400 313 400 q 344 400 374 416 q 404 433 427 462 z"},"m":{"x_min":0,"x_max":498,"ha":498,"o":"m 227 52 l 227 152 q 227 168 221 175 q 215 182 202 182 q 190 182 171 168 q 153 153 123 121 l 123 6 l 58 -12 l 58 -4 q 66 3 70 16 q 74 29 74 52 l 74 203 l 134 220 l 134 213 q 128 208 126 203 q 123 197 123 190 l 123 187 l 123 133 q 155 168 183 187 q 211 206 233 206 q 251 206 263 195 q 275 184 275 167 l 275 133 q 307 168 335 187 q 364 206 386 206 q 405 206 417 195 q 428 184 428 167 l 428 59 q 428 41 433 32 q 438 23 447 23 q 473 23 511 61 q 549 98 581 159 l 590 156 q 553 85 503 43 q 453 0 410 0 q 397 0 388 10 q 380 21 380 37 l 380 152 q 380 168 374 175 q 368 182 355 182 q 343 182 323 167 q 304 153 275 121 l 275 6 l 210 -12 l 210 -4 q 219 3 223 17 q 227 30 227 52 z"},"#":{"x_min":0,"x_max":769,"ha":769,"o":"m 342 428 l 289 280 l 436 280 l 488 428 z m 395 710 l 441 710 l 356 467 l 502 467 l 588 710 l 635 710 l 549 467 l 706 467 l 693 428 l 535 428 l 483 280 l 653 280 l 639 241 l 469 241 l 384 0 l 337 0 l 422 241 l 275 241 l 190 0 l 144 0 l 229 241 l 63 241 l 78 280 l 243 280 l 295 428 l 115 428 l 129 467 l 309 467 z"},",":{"x_min":0,"x_max":167,"ha":167,"o":"m 79 5 l 138 58 q 149 47 155 36 q 160 24 160 9 q 160 -21 139 -51 q 117 -81 78 -106 l 78 -96 q 103 -78 116 -60 q 129 -42 129 -24 q 129 -10 122 -1 q 116 8 102 12 l 86 -2 z"},"n":{"x_min":0,"x_max":345,"ha":345,"o":"m 58 -12 l 58 -4 q 66 3 70 16 q 74 29 74 52 l 74 203 l 134 220 l 134 213 q 128 208 126 203 q 123 197 123 190 l 123 187 l 123 133 q 155 168 183 187 q 211 206 233 206 q 251 206 263 195 q 275 184 275 167 l 275 59 q 275 41 280 32 q 284 23 294 23 q 320 23 358 61 q 396 98 428 159 l 437 156 q 400 85 350 42 q 301 0 258 0 q 245 0 236 10 q 227 21 227 37 l 227 152 q 227 168 221 175 q 215 182 202 182 q 190 182 171 168 q 153 153 123 121 l 123 6 z"},"h":{"x_min":0,"x_max":345,"ha":345,"o":"m 123 200 q 182 291 207 356 q 233 422 233 480 q 233 507 224 523 q 214 539 199 539 q 167 539 145 490 q 123 441 123 365 z m 58 -11 l 58 -3 q 66 4 70 17 q 74 30 74 52 l 74 337 q 74 426 115 488 q 157 550 211 550 q 237 550 254 532 q 270 515 270 487 q 270 445 241 383 q 212 322 123 187 l 123 134 q 155 169 183 188 q 211 207 233 207 q 251 207 263 196 q 275 185 275 167 l 275 59 q 275 41 280 32 q 284 23 294 23 q 320 23 358 61 q 396 99 428 160 l 437 157 q 399 86 350 43 q 300 0 258 0 q 245 0 236 10 q 227 21 227 37 l 227 152 q 227 168 221 175 q 215 182 202 182 q 190 182 171 168 q 153 153 123 121 l 123 7 z"},"z":{"x_min":0,"x_max":289,"ha":289,"o":"m 125 42 q 106 39 94 31 q 82 24 82 16 q 82 13 83 12 q 84 11 87 11 q 92 11 102 19 q 112 27 125 42 z m 197 -30 q 138 -70 108 -121 q 77 -171 77 -228 q 77 -260 87 -277 q 96 -294 114 -294 q 155 -294 180 -244 q 205 -194 205 -111 q 205 -94 203 -74 q 201 -53 197 -30 z m 261 210 l 267 206 l 144 51 q 171 49 192 36 q 213 23 227 1 q 280 37 315 75 q 351 114 373 159 l 382 156 q 360 111 324 72 q 288 33 231 -8 q 240 -26 245 -46 q 249 -67 249 -90 q 249 -141 231 -186 q 214 -230 179 -270 q 165 -286 147 -295 q 130 -304 113 -304 q 81 -304 62 -283 q 42 -263 42 -229 q 42 -180 82 -125 q 122 -70 195 -21 q 188 4 173 20 q 158 35 134 40 q 118 21 105 11 q 93 2 85 2 q 79 2 76 5 q 73 8 73 14 q 73 28 89 38 q 105 48 133 51 l 230 173 q 208 160 186 154 q 165 148 144 148 q 128 148 113 151 q 99 153 84 159 l 112 221 l 119 219 l 116 210 q 135 196 154 189 q 174 182 194 182 q 217 182 234 189 q 250 196 261 210 z"},"B":{"x_min":0,"x_max":667,"ha":667,"o":"m 268 315 l 269 306 q 247 282 220 270 q 194 258 165 258 q 109 258 78 291 q 46 324 46 382 q 46 430 71 475 q 96 520 146 562 q 189 599 246 618 q 303 638 365 638 q 457 638 517 592 q 577 545 577 476 q 577 429 545 392 q 513 355 448 327 l 458 327 q 527 327 567 289 q 607 251 607 187 q 607 112 559 55 q 511 -1 449 -1 q 418 -1 398 16 q 377 34 377 58 q 377 72 383 80 q 390 89 399 89 q 400 89 402 88 q 404 88 406 87 l 426 77 q 418 68 415 60 q 412 53 412 44 q 412 28 423 18 q 434 8 452 8 q 492 8 521 48 q 549 87 549 147 q 549 223 513 269 q 478 314 418 314 l 411 314 l 411 323 q 464 334 494 371 q 523 408 523 463 q 523 538 474 583 q 426 628 345 628 q 302 628 258 613 q 214 598 186 574 q 146 540 123 497 q 101 454 101 409 q 101 354 128 319 q 154 283 195 283 q 212 283 231 291 q 249 299 268 315 z m 429 563 q 406 543 394 507 q 382 472 382 423 q 382 384 387 322 q 393 259 393 236 q 393 136 326 67 q 258 -2 160 -2 q 108 -2 75 23 q 42 48 42 87 q 42 107 53 121 q 63 135 78 135 q 81 135 84 134 q 85 133 86 133 l 124 117 q 103 101 94 88 q 85 75 85 60 q 85 36 105 22 q 125 8 161 8 q 244 8 286 56 q 327 104 327 202 q 327 209 326 249 q 324 288 324 319 q 324 410 348 469 q 372 527 425 569 z"},"K":{"x_min":0,"x_max":644,"ha":644,"o":"m 366 310 q 391 324 406 348 q 422 373 440 435 q 471 542 505 589 q 539 637 582 637 q 612 637 630 617 q 648 598 648 564 l 648 554 l 617 554 l 617 557 q 617 587 604 605 q 592 623 570 623 q 543 623 527 602 q 511 580 491 501 q 470 419 443 375 q 417 332 374 307 q 422 301 451 276 q 479 251 496 199 q 504 173 516 129 q 544 22 582 22 q 616 22 655 59 q 694 95 727 159 l 736 156 q 696 81 647 41 q 598 0 548 0 q 507 0 485 38 q 462 76 437 212 q 429 253 412 275 q 395 297 366 303 z m 104 123 q 82 109 71 95 q 60 82 60 66 q 60 41 85 25 q 109 9 150 9 q 214 9 254 52 q 294 95 294 165 q 294 187 281 260 q 267 333 267 385 q 267 462 292 522 q 317 583 369 629 q 366 627 360 625 q 290 592 250 592 q 229 592 189 605 q 148 618 126 618 q 85 618 58 593 q 30 567 30 530 q 30 501 47 484 q 64 467 93 467 q 116 467 131 479 q 146 492 146 511 q 146 516 145 521 q 144 527 141 535 q 160 534 172 524 q 184 513 184 498 q 184 475 160 456 q 137 438 105 438 q 68 438 44 462 q 20 487 20 525 q 20 573 59 608 q 98 642 152 642 q 178 642 222 631 q 266 620 287 620 q 319 620 338 625 q 356 629 376 639 l 381 632 q 346 602 329 564 q 313 527 313 476 q 313 439 331 357 q 348 275 348 230 q 348 130 290 65 q 232 0 144 0 q 86 0 50 26 q 14 52 14 91 q 14 112 28 126 q 41 140 61 140 q 72 140 99 125 q 102 124 104 123 z"},"R":{"x_min":0,"x_max":671,"ha":671,"o":"m 412 303 q 471 321 500 361 q 530 402 530 465 q 530 538 480 582 q 430 627 349 627 q 316 627 284 619 q 252 611 221 596 q 166 568 131 516 q 97 463 97 408 q 97 354 124 318 q 151 283 192 283 q 209 283 228 291 q 246 299 265 315 l 266 306 q 243 282 217 269 q 191 257 162 257 q 106 257 75 290 q 43 323 43 381 q 43 429 68 474 q 92 519 142 561 q 185 598 242 617 q 300 637 362 637 q 467 637 529 594 q 591 552 591 482 q 591 421 548 375 q 505 328 423 299 q 470 290 495 257 q 521 225 543 132 q 559 63 573 43 q 586 23 609 23 q 643 23 682 60 q 721 96 755 160 l 764 158 q 724 83 674 42 q 625 0 577 0 q 532 0 508 36 q 483 73 464 188 l 463 191 q 449 281 412 293 z m 425 563 q 402 543 390 507 q 378 472 378 423 q 378 384 384 322 q 389 259 389 236 q 389 136 321 67 q 253 -2 155 -2 q 103 -2 70 23 q 37 48 37 87 q 37 106 49 121 q 62 136 77 136 q 81 136 84 135 q 88 134 91 132 l 120 117 q 99 101 90 87 q 81 73 81 57 q 81 34 101 21 q 121 8 156 8 q 239 8 281 56 q 322 104 322 202 q 322 209 320 249 q 319 288 319 319 q 319 410 343 469 q 367 527 420 569 z"},"T":{"x_min":0,"x_max":424,"ha":424,"o":"m 98 124 q 76 112 65 99 q 55 85 55 70 q 55 43 80 26 q 104 8 143 8 q 207 8 250 56 q 294 104 294 175 q 294 222 269 299 q 244 376 244 409 q 244 455 264 497 q 285 540 324 578 l 324 569 q 307 547 299 522 q 290 497 290 469 q 290 441 297 415 q 304 388 322 349 l 324 345 q 354 281 354 227 q 354 130 293 64 q 233 -1 144 -1 q 90 -1 51 28 q 11 57 11 92 q 11 112 24 125 q 37 139 57 139 q 64 139 74 135 q 84 132 98 124 z m 144 441 l 144 438 q 136 420 126 413 q 116 405 100 405 q 67 405 47 428 q 28 451 28 491 q 28 553 77 596 q 125 638 198 638 q 242 638 318 619 q 394 599 426 599 q 441 599 454 606 q 467 613 483 631 q 483 629 484 626 q 484 624 484 619 q 484 593 469 580 q 455 566 428 566 q 408 566 335 597 q 263 629 211 629 q 152 629 113 594 q 73 559 73 507 q 73 479 89 459 q 105 439 128 439 q 133 439 136 439 q 140 440 144 441 z"},"P":{"x_min":0,"x_max":523,"ha":523,"o":"m 340 299 q 342 285 343 271 q 344 257 344 243 q 344 140 286 70 q 228 0 145 0 q 88 0 49 28 q 10 56 10 94 q 10 113 23 127 q 36 140 55 140 l 60 140 l 98 125 q 75 115 65 103 q 54 91 54 75 q 54 48 80 29 q 106 10 146 10 q 209 10 248 57 q 287 105 287 183 q 287 218 276 282 q 265 346 265 377 q 265 437 285 490 q 304 544 343 591 l 343 581 q 328 555 321 528 q 314 500 314 470 q 314 441 320 401 q 327 360 339 308 q 400 321 434 363 q 467 405 467 468 q 467 534 419 579 q 371 623 297 623 q 255 623 216 609 q 177 595 145 569 q 106 538 85 495 q 64 453 64 407 q 64 353 92 318 q 121 284 165 284 q 179 284 192 288 q 206 292 220 300 l 220 293 q 199 274 175 265 q 151 255 126 255 q 75 255 42 290 q 10 325 10 381 q 10 424 34 469 q 59 514 102 553 q 149 594 209 617 q 270 639 335 639 q 417 639 470 593 q 523 547 523 478 q 523 410 474 362 q 425 314 340 299 z"},"|":{"x_min":0,"x_max":500,"ha":500,"o":"m 228 764 l 272 764 l 272 -236 l 228 -236 z"},"t":{"x_min":0,"x_max":222,"ha":222,"o":"m 84 257 l 32 234 l 32 244 l 84 267 l 84 394 l 158 414 l 158 408 q 143 399 138 391 q 133 383 133 366 l 133 288 l 200 318 l 200 307 l 133 279 l 133 61 q 133 35 139 27 q 145 18 159 18 q 190 18 231 57 q 272 95 306 159 l 315 156 q 276 82 227 41 q 177 0 128 0 q 104 0 94 11 q 84 21 84 56 z"},"M":{"x_min":0,"x_max":856,"ha":856,"o":"m 500 -2 l 500 5 q 513 5 519 89 q 524 172 524 425 q 524 471 511 492 q 499 514 466 536 l 411 499 q 421 470 426 434 q 431 397 431 352 q 431 274 409 210 q 387 146 342 90 q 307 47 260 22 q 212 -2 163 -2 q 113 -2 86 20 q 58 42 58 80 q 58 107 73 126 q 87 144 108 144 q 112 144 114 144 q 115 144 117 143 l 156 134 q 120 114 103 96 q 87 78 87 57 q 87 34 108 20 q 128 7 164 7 q 258 7 316 93 q 373 179 373 324 q 373 452 325 532 q 277 612 203 612 q 139 612 96 567 q 53 521 53 453 q 53 390 88 345 q 124 300 171 300 q 202 300 224 323 q 246 347 246 380 q 246 407 231 424 q 217 441 195 441 q 188 441 181 440 q 174 439 163 436 q 173 456 183 464 q 194 472 210 472 q 237 472 254 455 q 272 438 272 411 q 272 358 229 316 q 187 274 132 274 q 83 274 53 311 q 23 347 23 409 q 23 456 41 497 q 58 539 94 578 q 120 607 156 622 q 191 637 234 637 q 289 637 335 603 q 380 569 407 509 l 501 571 q 503 569 508 566 q 558 531 572 498 l 656 564 q 674 547 692 538 q 710 530 728 530 q 743 530 758 536 q 772 543 786 556 l 793 552 q 757 492 740 422 q 723 352 723 263 q 723 154 742 86 q 762 18 791 18 q 824 18 865 56 q 906 95 940 159 l 949 156 q 910 83 860 41 q 810 -2 766 -2 q 721 -2 694 54 q 667 110 667 205 q 667 294 694 377 q 722 460 776 536 q 750 519 723 510 q 696 501 672 501 q 661 501 649 506 q 638 511 620 523 l 575 490 q 580 474 582 456 q 584 439 584 415 q 584 360 580 251 q 576 143 569 5 z"},"g":{"x_min":0,"x_max":338,"ha":338,"o":"m 216 48 l 216 140 q 216 168 204 182 q 192 197 168 197 q 142 197 121 170 q 101 144 101 106 q 101 67 118 44 q 134 21 162 21 q 176 21 190 28 q 204 35 216 48 z m 216 -44 q 146 -87 111 -134 q 76 -180 76 -231 q 76 -258 87 -274 q 97 -290 115 -290 q 159 -290 187 -235 q 216 -179 216 -89 z m 280 220 l 280 212 q 271 205 268 194 q 264 183 264 157 l 264 -4 q 317 25 356 66 q 396 107 422 159 l 430 156 q 403 103 361 60 q 319 17 264 -15 l 264 -40 q 264 -155 217 -228 q 170 -301 101 -301 q 70 -301 53 -283 q 36 -266 36 -235 q 36 -192 81 -142 q 125 -92 216 -33 l 216 36 q 197 19 175 10 q 153 0 131 0 q 95 0 74 21 q 54 42 54 80 q 54 129 90 167 q 126 206 170 206 q 183 206 197 202 q 211 197 226 188 z"},"j":{"x_min":0,"x_max":220,"ha":220,"o":"m 83 353 q 83 364 92 373 q 101 382 112 382 q 124 382 133 374 q 141 365 141 353 q 141 342 132 333 q 123 324 112 324 q 102 324 92 333 q 83 342 83 353 z m 84 -51 q 32 -89 5 -135 q -22 -180 -22 -228 q -22 -257 -14 -271 q -6 -286 9 -286 q 43 -286 63 -231 q 84 -177 84 -83 z m 84 -40 l 84 199 l 157 220 l 157 213 q 142 205 137 197 q 132 189 132 172 l 132 -13 q 197 25 238 67 q 279 108 303 159 l 312 156 q 287 104 244 61 q 201 18 132 -24 l 132 -42 q 132 -152 89 -227 q 46 -301 -10 -301 q -32 -301 -43 -284 q -55 -268 -55 -237 q -55 -188 -20 -138 q 16 -88 84 -40 z"},"i":{"x_min":0,"x_max":222,"ha":222,"o":"m 133 81 q 133 45 139 32 q 145 19 160 19 q 191 19 232 58 q 273 96 306 159 l 315 156 q 277 84 227 42 q 177 0 132 0 q 111 0 97 15 q 84 31 84 56 l 84 199 l 157 220 l 157 213 q 143 205 138 198 q 133 190 133 172 z m 83 353 q 83 364 92 373 q 101 382 112 382 q 124 382 133 373 q 142 365 142 353 q 142 342 133 333 q 124 324 112 324 q 102 324 92 333 q 83 342 83 353 z"},"y":{"x_min":0,"x_max":338,"ha":338,"o":"m 216 -44 q 146 -87 111 -134 q 76 -180 76 -231 q 76 -258 87 -274 q 97 -290 115 -290 q 159 -290 187 -235 q 216 -179 216 -89 z m 216 68 q 184 32 160 16 q 137 0 116 0 q 97 0 86 11 q 74 21 74 39 l 74 203 l 134 220 l 134 213 q 128 208 126 203 q 123 197 123 190 l 123 187 l 123 54 q 123 38 128 31 q 133 24 144 24 q 155 24 172 37 q 189 51 216 81 l 216 202 l 281 220 l 281 212 q 272 205 268 191 q 264 178 264 157 l 264 -4 q 317 25 356 66 q 396 107 422 159 l 430 156 q 403 103 361 60 q 319 17 264 -15 l 264 -40 q 264 -154 217 -228 q 170 -301 101 -301 q 70 -301 53 -283 q 36 -266 36 -235 q 36 -192 81 -142 q 125 -92 216 -33 z"},"@":{"x_min":0,"x_max":986,"ha":986,"o":"m 583 168 q 554 115 515 89 q 477 62 428 62 q 372 62 336 107 q 301 152 301 224 q 301 276 325 329 q 349 381 391 423 q 423 455 460 472 q 498 490 534 490 q 575 490 602 465 q 630 439 641 392 l 669 482 l 728 482 l 646 187 l 645 184 q 636 151 636 134 q 636 108 650 94 q 663 80 687 80 q 710 80 740 94 q 769 108 795 133 q 842 177 868 241 q 895 305 895 375 q 895 517 800 603 q 705 689 548 689 q 462 689 388 661 q 314 633 256 579 q 189 517 155 433 q 121 349 121 246 q 121 161 148 99 q 175 38 235 -14 q 292 -64 366 -90 q 439 -116 522 -116 q 606 -116 684 -90 q 761 -64 826 -14 l 839 -29 q 768 -82 688 -109 q 608 -136 522 -136 q 429 -136 355 -114 q 281 -92 222 -46 q 148 10 111 88 q 73 167 73 262 q 73 361 115 447 q 156 533 237 600 q 301 653 379 681 q 456 708 544 708 q 712 708 813 617 q 914 526 914 374 q 914 298 886 230 q 857 162 806 115 q 777 88 746 75 q 715 61 683 61 q 636 61 611 88 q 586 115 583 168 z m 532 474 q 504 474 481 459 q 458 444 435 409 q 399 356 378 295 q 357 234 357 186 q 357 137 378 109 q 400 81 437 81 q 470 81 501 103 q 532 125 561 169 q 590 213 606 266 q 623 318 623 363 q 623 410 596 442 q 570 474 532 474 z"},".":{"x_min":0,"x_max":167,"ha":167,"o":"m 100 30 q 100 42 109 51 q 118 60 130 60 q 143 60 151 52 q 160 43 160 30 q 160 18 151 9 q 142 0 130 0 q 118 0 109 9 q 100 18 100 30 z"},"p":{"x_min":0,"x_max":338,"ha":338,"o":"m 123 -226 l 58 -244 l 58 -236 q 66 -229 70 -216 q 74 -203 74 -181 l 74 203 l 134 220 l 134 213 q 128 208 126 203 q 123 197 123 190 l 123 187 l 123 151 q 148 179 171 192 q 193 206 215 206 q 247 206 266 184 q 285 162 285 126 q 285 89 264 58 q 243 26 209 11 q 210 11 211 11 q 225 9 231 9 q 288 9 336 47 q 384 85 422 159 l 430 156 q 391 81 340 40 q 289 0 234 0 q 227 0 217 1 q 207 2 193 5 q 192 5 190 4 q 173 -1 166 -1 q 155 -1 144 3 q 134 8 123 17 z m 123 29 q 136 19 147 14 q 159 9 170 9 q 198 9 217 36 q 237 62 237 103 q 237 137 222 156 q 208 176 182 176 q 167 176 152 165 q 137 155 123 135 z"},"X":{"x_min":0,"x_max":750,"ha":750,"o":"m 417 227 q 388 120 325 60 q 262 0 180 0 q 134 0 105 26 q 75 51 75 90 q 75 114 91 133 q 106 152 125 152 q 138 152 152 148 q 166 145 179 138 q 143 119 125 100 q 107 80 107 59 q 107 37 129 22 q 150 8 184 8 q 277 8 341 103 q 405 197 405 339 q 405 478 365 549 q 324 621 246 621 q 176 621 124 566 q 72 512 72 436 q 72 380 100 341 q 128 302 166 302 q 199 302 224 325 q 250 349 250 380 q 250 405 234 423 q 219 440 197 440 q 192 440 186 438 q 179 437 170 434 q 176 453 190 463 q 204 473 224 473 q 248 473 263 457 q 279 440 279 415 q 279 364 234 322 q 190 279 137 279 q 89 279 58 311 q 27 344 27 395 q 27 440 49 485 q 71 529 115 573 q 144 602 186 620 q 227 637 267 637 q 352 637 404 577 q 456 516 468 404 q 497 507 552 566 q 606 626 669 626 q 708 626 733 606 q 759 586 759 556 q 759 537 750 527 q 740 516 724 516 q 720 516 716 517 q 711 518 706 519 q 711 529 713 537 q 715 545 715 555 q 715 581 699 597 q 683 613 656 613 q 629 613 602 596 q 575 579 552 547 q 518 501 498 435 q 477 369 477 304 q 477 180 530 97 q 582 15 659 15 q 708 15 752 51 q 795 87 834 159 l 842 156 q 800 76 749 38 q 699 -1 636 -1 q 554 -1 496 59 q 438 120 417 227 z"},"*":{"x_min":0,"x_max":500,"ha":500,"o":"m 257 495 q 234 484 210 456 q 187 427 171 427 q 161 427 154 434 q 147 441 147 452 q 147 474 188 483 q 229 492 252 505 q 224 523 188 527 q 184 528 182 528 q 165 531 156 539 q 147 546 147 558 q 147 568 154 576 q 162 583 172 583 q 186 583 210 555 q 234 527 257 515 l 257 523 q 257 545 247 573 q 237 601 237 608 q 237 620 245 629 q 252 637 263 637 q 273 637 281 629 q 289 620 289 608 q 289 601 279 573 q 269 545 269 523 l 269 515 q 292 526 316 554 q 339 583 355 583 q 365 583 372 576 q 379 569 379 558 q 379 536 338 527 q 297 518 274 505 q 302 486 337 483 q 342 482 344 482 q 361 479 370 471 q 379 464 379 452 q 379 441 372 434 q 364 427 354 427 q 339 427 315 455 q 292 483 269 496 l 269 488 q 269 465 279 437 q 289 409 289 402 q 289 390 281 381 q 274 373 263 373 q 252 373 244 381 q 237 390 237 402 q 237 410 247 437 q 257 464 257 487 z"},"Y":{"x_min":0,"x_max":611,"ha":611,"o":"m 475 299 q 446 267 423 254 q 400 240 375 240 q 333 240 307 278 q 281 316 281 378 q 281 401 288 447 q 296 493 296 517 q 296 571 271 602 q 245 632 200 632 q 142 632 99 588 q 56 543 56 482 q 56 433 86 398 q 116 363 157 363 q 186 363 202 376 q 218 390 224 419 l 232 419 q 223 371 197 344 q 171 317 133 317 q 84 317 51 356 q 18 395 18 454 q 18 494 36 531 q 55 568 90 599 q 111 618 141 630 q 171 641 200 641 q 272 641 314 594 q 356 548 356 467 q 356 430 346 375 q 336 321 336 305 q 336 278 347 264 q 359 250 381 250 q 399 250 421 263 q 442 277 474 308 l 474 325 q 474 408 501 476 q 529 544 583 596 l 583 587 q 561 557 549 518 q 538 478 538 429 q 538 412 542 358 q 547 305 547 268 q 547 150 480 75 q 413 -1 311 -1 q 252 -1 218 23 q 184 47 184 88 q 184 111 196 126 q 208 140 227 140 q 232 140 238 138 q 244 136 250 132 l 264 124 q 247 112 239 98 q 230 83 230 68 q 230 41 252 24 q 275 8 312 8 q 392 8 437 59 q 482 110 482 202 q 482 213 480 238 q 479 264 475 299 z"},"c":{"x_min":0,"x_max":285,"ha":285,"o":"m 368 159 l 377 156 q 336 78 286 39 q 235 0 175 0 q 125 0 95 27 q 65 55 65 100 q 65 148 97 177 q 130 206 184 206 q 206 206 219 198 q 233 189 233 176 q 233 163 223 152 q 213 141 190 127 l 183 131 q 188 137 190 144 q 192 150 192 157 q 192 173 182 184 q 173 195 159 195 q 136 195 123 178 q 109 162 109 134 q 109 85 138 51 q 167 17 207 17 q 249 17 290 53 q 331 89 368 159 z"},"!":{"x_min":0,"x_max":190,"ha":190,"o":"m 157 424 q 157 421 158 415 q 158 409 158 406 q 158 392 155 362 q 153 351 153 345 l 134 144 l 125 144 l 106 345 l 106 348 q 102 387 102 406 l 102 424 z m 100 30 q 100 42 109 51 q 118 60 130 60 q 143 60 151 52 q 160 43 160 30 q 160 18 151 9 q 142 0 130 0 q 118 0 109 9 q 100 18 100 30 z"},"/":{"x_min":0,"x_max":292,"ha":292,"o":"m -22 -93 l 334 637 l 355 637 l -1 -93 z"},"[":{"x_min":0,"x_max":336,"ha":336,"o":"m 123 -287 l 123 639 l 338 639 l 338 616 l 164 616 l 164 -264 l 338 -264 l 338 -287 z"},"6":{"x_min":0,"x_max":310,"ha":310,"o":"m 102 183 q 109 100 129 58 q 148 16 179 16 q 200 16 212 40 q 224 63 224 103 q 224 146 203 172 q 181 198 147 198 q 136 198 125 194 q 113 190 102 183 z m 101 193 q 126 211 147 219 q 168 228 188 228 q 225 228 247 204 q 269 181 269 140 q 269 82 235 41 q 201 0 153 0 q 106 0 75 42 q 44 85 44 152 q 44 250 88 317 q 132 384 193 384 q 223 384 242 372 q 261 359 261 341 q 261 322 249 310 q 236 298 213 295 q 216 303 218 312 q 220 320 220 330 q 220 349 209 361 q 198 373 181 373 q 144 373 122 332 q 100 291 100 221 q 100 210 100 204 q 101 198 101 193 z"},"r":{"x_min":0,"x_max":287,"ha":287,"o":"m 106 230 l 115 230 q 113 223 112 212 q 111 209 111 208 q 125 199 141 195 q 157 191 175 191 q 193 191 208 195 q 223 198 237 206 l 239 198 q 217 174 206 150 q 196 125 196 97 q 196 64 208 46 q 220 27 240 27 q 266 27 302 63 q 338 99 371 159 l 379 156 q 341 85 292 42 q 244 0 203 0 q 179 0 166 17 q 152 33 152 62 q 152 89 166 116 q 180 143 220 188 q 191 172 162 164 q 132 156 105 156 l 92 156 q 72 118 49 88 q 26 59 0 38 l 0 49 q 43 87 70 133 q 96 179 106 230 z"},"2":{"x_min":0,"x_max":310,"ha":310,"o":"m 296 68 q 269 31 249 15 q 229 -1 210 -1 q 199 -1 188 4 q 177 9 171 16 q 167 21 159 31 q 123 77 103 77 q 97 77 91 75 q 85 72 78 67 q 75 54 71 33 q 65 0 53 0 q 47 0 44 3 q 40 7 40 12 q 40 23 48 38 q 56 53 72 71 q 92 101 131 150 q 211 252 211 305 q 211 336 195 355 q 179 374 152 374 q 125 374 104 355 q 83 337 83 312 q 83 289 98 276 q 113 263 141 261 l 121 241 q 115 238 109 237 q 104 236 99 236 q 77 236 64 250 q 51 263 51 287 q 51 329 85 357 q 120 385 172 385 q 213 385 242 360 q 270 335 270 300 q 270 271 250 243 q 231 215 169 163 l 166 160 q 105 109 84 78 q 96 85 107 88 q 119 92 128 92 q 145 92 159 85 q 174 79 191 65 q 197 60 207 50 q 226 30 240 30 q 254 30 280 62 q 286 69 289 73 z"},"{":{"x_min":0,"x_max":500,"ha":500,"o":"m 412 740 l 412 717 q 337 716 311 690 q 284 665 284 588 l 284 516 q 284 406 253 366 q 221 325 136 310 q 221 295 253 255 q 284 215 284 104 l 284 32 q 284 -44 311 -70 q 337 -96 412 -97 l 412 -119 l 407 -119 q 303 -119 264 -83 q 225 -48 225 50 l 225 158 q 225 233 196 262 q 167 291 86 297 l 86 324 q 168 332 197 360 q 225 388 225 463 l 225 571 q 225 668 264 704 q 303 740 407 740 z"},"9":{"x_min":0,"x_max":310,"ha":310,"o":"m 210 202 q 203 285 183 327 q 163 369 132 369 q 111 369 99 346 q 87 322 87 282 q 87 239 108 213 q 129 187 164 187 q 175 187 187 191 q 199 195 210 202 z m 211 192 q 187 174 165 166 q 143 157 123 157 q 86 157 64 181 q 43 204 43 245 q 43 303 77 344 q 111 384 159 384 q 206 384 237 342 q 267 300 267 233 q 267 135 222 68 q 178 0 116 0 q 87 0 69 13 q 50 26 50 46 q 50 63 63 75 q 76 87 98 90 q 94 81 93 73 q 91 64 91 55 q 91 36 102 24 q 113 12 131 12 q 167 12 189 54 q 212 97 212 166 q 212 176 212 182 q 211 188 211 192 z"}," ":{"x_min":0,"x_max":155,"ha":155,"o":""},"I":{"x_min":0,"x_max":440,"ha":440,"o":"m 110 123 q 84 110 74 98 q 64 85 64 69 q 64 43 86 26 q 108 8 142 8 q 227 8 269 66 q 312 125 312 240 q 312 281 311 323 q 309 365 309 367 q 309 434 328 490 q 347 545 391 608 q 267 567 195 503 q 124 439 124 369 q 124 332 147 306 q 170 281 204 281 q 221 281 236 288 q 250 295 264 311 l 257 272 q 254 258 238 249 q 221 240 197 240 q 154 240 125 271 q 96 302 96 348 q 96 430 173 501 q 250 571 390 617 q 398 627 405 633 q 411 639 416 639 q 420 639 420 638 q 421 637 421 634 q 421 629 416 623 q 411 618 402 612 q 383 583 374 542 q 364 501 364 451 q 364 412 371 346 q 379 280 379 253 q 379 142 313 71 q 248 -1 147 -1 q 94 -1 58 24 q 23 49 23 85 q 23 107 36 123 q 50 139 68 139 q 76 139 86 135 q 96 131 110 123 z"},"H":{"x_min":0,"x_max":708,"ha":708,"o":"m 716 565 q 704 554 692 547 q 681 541 667 537 q 670 545 672 554 q 674 563 674 573 q 674 598 661 612 q 649 626 627 626 q 572 626 537 538 q 503 450 503 303 q 503 158 532 87 q 562 15 622 15 q 668 15 712 52 q 755 89 792 159 l 801 156 q 760 78 709 39 q 659 0 598 0 q 522 0 484 59 q 446 118 446 235 q 446 306 459 373 q 472 439 497 499 q 526 568 562 603 q 599 637 642 637 q 672 637 694 618 q 716 598 716 571 z m 352 316 q 357 326 366 331 q 374 337 383 337 q 394 337 409 329 q 424 322 432 322 l 435 322 q 430 309 423 303 q 416 297 406 297 q 398 297 381 306 q 364 315 352 316 z m 104 123 q 82 109 71 95 q 60 82 60 66 q 60 41 85 25 q 109 9 150 9 q 214 9 254 52 q 294 95 294 165 q 294 187 281 260 q 267 333 267 385 q 267 462 292 522 q 317 583 369 629 q 366 627 360 625 q 290 592 250 592 q 229 592 189 605 q 148 618 126 618 q 85 618 58 593 q 30 567 30 530 q 30 501 47 484 q 64 467 93 467 q 116 467 131 479 q 146 492 146 511 q 146 516 145 521 q 144 527 141 535 q 160 534 172 524 q 184 513 184 498 q 184 475 160 456 q 137 438 105 438 q 68 438 44 462 q 20 487 20 525 q 20 573 59 608 q 98 642 152 642 q 178 642 222 631 q 266 620 287 620 q 319 620 338 625 q 356 629 376 639 l 381 632 q 346 602 329 564 q 313 527 313 476 q 313 439 331 357 q 348 275 348 230 q 348 130 290 65 q 232 0 144 0 q 86 0 50 26 q 14 52 14 91 q 14 112 28 126 q 41 140 61 140 q 72 140 99 125 q 102 124 104 123 z"},"4":{"x_min":0,"x_max":310,"ha":310,"o":"m 71 173 q 64 175 60 175 q 57 176 53 176 q 39 176 30 171 q 21 167 21 160 q 21 155 24 153 q 27 150 33 150 q 40 150 50 156 q 60 162 71 173 z m 134 -3 q 140 36 147 71 q 155 106 165 139 q 145 144 124 151 q 104 158 82 169 q 57 151 47 146 q 38 141 30 141 q 21 141 16 146 q 10 151 10 159 q 10 170 22 178 q 35 186 53 186 q 56 186 62 185 q 69 184 77 181 q 93 203 101 237 q 110 271 110 314 q 110 346 105 366 q 100 387 89 403 q 92 403 96 404 q 100 404 107 404 q 138 404 154 387 q 170 371 170 339 q 170 306 148 261 q 125 217 87 176 q 112 164 132 157 q 152 150 168 149 q 191 210 213 252 q 234 293 255 318 l 260 313 q 239 275 228 232 q 216 190 212 141 l 215 141 q 232 141 244 149 q 256 158 256 170 q 256 176 252 181 q 249 187 242 191 l 257 201 q 258 202 260 202 q 262 203 263 203 q 271 203 277 197 q 283 191 283 182 q 283 162 263 147 q 243 132 213 132 l 211 132 q 208 104 206 77 q 204 51 204 25 l 204 7 q 222 9 231 11 q 199 6 134 -3 z"},"~":{"x_min":0,"x_max":833,"ha":833,"o":"m 747 361 l 747 316 q 695 280 648 262 q 602 244 558 244 q 510 244 428 274 q 420 277 417 278 q 412 280 401 284 q 320 313 276 313 q 235 313 190 295 q 146 276 87 235 l 87 280 q 138 316 185 333 q 232 351 276 351 q 325 351 408 321 q 414 319 417 318 q 421 316 431 313 q 513 283 558 283 q 599 283 644 302 q 688 320 747 361 z"},"D":{"x_min":0,"x_max":606,"ha":606,"o":"m 217 29 q 209 32 194 39 q 118 73 83 73 q 59 73 43 64 q 28 56 28 44 q 28 30 52 21 q 75 11 113 11 q 149 11 174 15 q 198 20 217 29 z m 234 21 q 196 9 167 4 q 138 -1 113 -1 q 73 -1 46 12 q 19 26 19 45 q 19 62 44 74 q 69 86 106 86 q 132 86 162 77 q 192 69 243 44 q 273 71 286 107 q 300 142 300 195 q 300 221 296 268 q 292 314 292 334 q 292 403 317 456 q 341 509 393 552 l 393 543 q 372 517 362 489 q 352 461 352 427 q 352 404 360 340 q 367 276 367 236 q 367 173 341 124 q 314 76 259 36 q 288 23 311 17 q 335 11 355 11 q 436 11 488 85 q 540 159 540 278 q 540 362 516 431 q 491 501 444 552 q 412 586 372 605 q 332 623 288 623 q 197 623 136 564 q 74 505 74 418 q 74 359 101 322 q 128 284 169 284 q 187 284 203 291 q 220 298 237 313 l 237 304 q 212 280 186 268 q 160 256 133 256 q 84 256 52 292 q 20 327 20 382 q 20 419 35 457 q 51 495 79 528 q 124 580 188 609 q 251 638 321 638 q 434 638 499 557 q 564 477 564 336 q 564 185 501 91 q 438 -3 338 -3 q 318 -3 293 3 q 268 8 234 21 z"},"^":{"x_min":0,"x_max":1000,"ha":1000,"o":"m 462 714 l 536 714 l 797 438 l 756 438 l 499 665 l 240 438 l 201 438 z"},"0":{"x_min":0,"x_max":310,"ha":310,"o":"m 241 172 q 241 258 216 315 q 190 372 153 372 q 124 372 105 337 q 87 303 87 247 q 87 149 114 86 q 142 23 182 23 q 211 23 226 61 q 241 99 241 172 z m 153 0 q 103 0 72 47 q 40 94 40 170 q 40 261 77 322 q 115 384 167 384 q 214 384 242 340 q 270 296 270 221 q 270 122 238 61 q 205 0 153 0 z"},"F":{"x_min":0,"x_max":523,"ha":523,"o":"m 170 441 l 158 419 q 154 412 146 408 q 138 405 127 405 q 93 405 74 428 q 54 451 54 491 q 54 553 103 596 q 152 638 225 638 q 271 638 347 618 q 423 598 451 598 q 470 598 483 606 q 497 613 509 631 l 506 601 q 504 585 490 575 q 477 566 455 566 q 436 566 363 597 q 290 629 238 629 q 179 629 140 594 q 100 559 100 507 q 100 479 116 459 q 133 439 155 439 q 159 439 163 439 q 167 440 170 441 z m 355 338 q 369 308 375 281 q 381 254 381 227 q 381 129 320 64 q 260 -1 171 -1 q 117 -1 77 28 q 37 57 37 92 q 37 111 49 125 q 61 138 77 138 q 79 138 82 137 q 85 137 88 136 l 125 124 q 103 112 93 99 q 82 85 82 70 q 82 43 106 26 q 131 8 169 8 q 232 8 276 56 q 320 104 320 175 q 320 222 295 299 q 270 376 270 409 q 270 454 291 497 q 311 540 351 578 l 351 569 q 333 546 325 521 q 316 496 316 469 q 316 438 325 408 q 333 378 351 347 q 355 349 365 354 q 411 377 421 377 q 427 377 439 374 q 452 371 466 365 l 491 385 l 497 379 l 430 320 q 416 333 405 340 q 394 346 384 346 q 379 346 372 344 q 364 342 355 338 z"},"`":{"x_min":0,"x_max":500,"ha":500,"o":"m 273 260 l 175 398 q 172 402 170 406 q 169 409 169 413 q 169 417 172 419 q 175 422 179 422 q 183 422 187 420 q 190 417 193 413 l 290 260 z"},"k":{"x_min":0,"x_max":336,"ha":336,"o":"m 127 214 q 183 293 210 359 q 237 425 237 482 q 237 508 228 524 q 218 540 203 540 q 171 540 149 491 q 127 442 127 366 z m 62 -11 l 62 -3 q 71 4 75 18 q 79 31 79 53 l 79 337 q 79 426 120 488 q 161 550 215 550 q 241 550 258 532 q 274 515 274 487 q 274 445 241 381 q 209 316 127 200 l 127 7 z m 135 119 q 151 160 181 184 q 211 207 248 207 q 257 207 268 204 q 278 202 289 196 l 258 162 q 247 171 238 176 q 228 180 218 180 q 195 180 175 164 q 155 147 145 121 q 182 121 221 65 q 224 61 226 58 q 244 33 254 25 q 263 18 274 18 q 304 18 344 57 q 385 96 419 159 l 428 157 q 388 83 340 42 q 292 0 247 0 q 221 0 205 12 q 189 25 174 60 q 172 65 168 75 q 156 109 135 113 z"},"u":{"x_min":0,"x_max":345,"ha":345,"o":"m 227 202 l 292 220 l 292 212 q 283 205 279 191 q 275 178 275 157 l 275 59 q 275 41 280 32 q 284 24 294 24 q 320 24 358 61 q 396 98 428 159 l 437 156 q 400 85 350 42 q 301 0 258 0 q 245 0 236 10 q 227 21 227 37 l 227 73 q 195 37 167 19 q 138 0 116 0 q 97 0 86 11 q 74 21 74 39 l 74 203 l 134 220 l 134 213 q 128 208 126 203 q 123 197 123 190 l 123 187 l 123 54 q 123 38 128 31 q 134 24 146 24 q 159 24 177 37 q 195 51 227 85 z"},"]":{"x_min":0,"x_max":336,"ha":336,"o":"m 292 639 l 292 -287 l 76 -287 l 76 -264 l 250 -264 l 250 616 l 76 616 l 76 639 z"},"U":{"x_min":0,"x_max":715,"ha":715,"o":"m 556 92 q 521 46 487 23 q 454 0 422 0 q 366 0 338 44 q 310 88 310 177 q 310 226 319 316 q 327 407 327 449 q 327 531 292 574 q 257 617 191 617 q 123 617 74 568 q 26 518 26 448 q 26 379 64 332 q 102 284 154 284 q 189 284 209 304 q 229 325 229 360 q 229 393 212 412 q 195 432 168 432 q 159 432 148 427 q 137 422 123 412 l 133 443 q 137 455 152 463 q 166 471 185 471 q 211 471 229 448 q 248 425 248 391 q 248 332 212 292 q 175 252 122 252 q 65 252 29 295 q -8 338 -8 406 q -8 454 15 500 q 38 547 79 584 q 109 610 148 625 q 187 640 224 640 q 301 640 347 587 q 392 534 392 442 q 392 396 382 296 q 371 196 371 142 q 371 81 390 50 q 409 18 445 18 q 467 18 492 37 q 518 57 556 103 q 555 124 554 150 q 553 176 553 208 q 553 264 556 342 q 559 419 565 519 l 650 565 l 650 555 q 628 545 620 471 q 612 397 612 142 q 612 55 619 35 q 625 15 644 15 q 678 15 721 54 q 765 94 799 159 l 808 156 q 769 82 720 41 q 670 0 622 0 q 590 0 573 23 q 557 46 556 92 z"},"o":{"x_min":0,"x_max":329,"ha":329,"o":"m 189 10 q 195 9 200 9 q 205 9 211 9 q 275 9 324 45 q 373 82 412 159 l 421 156 q 378 75 327 37 q 275 0 206 0 q 192 0 183 0 q 174 0 165 1 q 160 0 156 0 q 151 0 144 0 q 100 0 73 22 q 47 44 47 81 q 47 129 89 168 q 130 206 186 206 q 225 206 249 185 q 274 164 274 131 q 274 95 250 61 q 227 27 189 10 z m 163 193 q 135 193 117 171 q 100 149 100 114 q 100 67 117 40 q 134 12 162 12 q 190 12 207 34 q 223 56 223 94 q 223 139 207 166 q 190 193 163 193 z"},"N":{"x_min":0,"x_max":782,"ha":782,"o":"m 211 136 q 173 119 155 100 q 137 81 137 59 q 137 38 158 23 q 178 9 211 9 q 301 9 361 93 q 420 178 420 310 q 420 453 369 539 q 318 625 237 625 q 167 625 118 572 q 69 518 69 441 q 69 383 101 343 q 133 303 178 303 q 208 303 226 325 q 245 346 245 381 q 245 410 231 428 q 217 446 195 446 q 187 446 179 444 q 171 442 164 438 l 187 468 q 190 472 198 475 q 207 478 216 478 q 241 478 256 459 q 271 441 271 411 q 271 357 232 318 q 194 279 140 279 q 90 279 58 314 q 26 350 26 405 q 26 438 37 472 q 48 505 69 534 q 106 586 157 614 q 208 641 266 641 q 332 641 380 604 q 429 567 461 493 l 564 571 q 591 550 611 542 q 631 533 649 533 q 665 533 678 539 q 691 544 703 556 l 703 547 q 671 501 656 437 q 642 373 642 272 q 642 156 664 89 q 685 23 722 23 q 755 23 794 59 q 833 95 866 159 l 875 156 q 837 83 789 43 q 740 2 693 2 q 647 2 615 60 q 583 118 583 208 q 583 297 610 382 q 637 467 687 536 q 667 521 646 514 q 625 507 605 507 q 588 507 568 513 q 549 519 527 531 l 463 484 q 472 455 477 425 q 481 395 481 364 q 481 287 461 219 q 440 152 403 104 q 366 56 313 28 q 261 0 209 0 q 166 0 136 25 q 106 50 106 85 q 106 112 121 131 q 135 150 153 150 q 154 150 156 149 q 157 149 158 149 z"},"+":{"x_min":0,"x_max":833,"ha":833,"o":"m 397 596 l 436 596 l 436 318 l 709 318 l 709 278 l 436 278 l 436 0 l 397 0 l 397 278 l 124 278 l 124 318 l 397 318 z"},"G":{"x_min":0,"x_max":530,"ha":530,"o":"m 184 152 q 148 144 130 127 q 112 110 112 86 q 112 52 145 31 q 178 9 231 9 q 293 9 336 35 q 379 61 397 110 q 406 134 409 189 q 411 244 414 267 q 372 240 332 227 q 292 213 256 213 q 167 213 109 267 q 52 322 52 405 q 52 456 76 501 q 100 546 145 584 q 177 610 217 625 q 258 640 299 640 q 375 640 426 599 q 478 559 478 500 q 478 451 443 419 q 409 387 356 387 q 305 387 271 414 q 237 441 237 480 q 237 501 253 517 q 269 533 290 533 q 301 533 311 528 q 321 522 334 509 l 331 509 q 302 509 288 497 q 273 484 273 460 q 273 432 291 415 q 310 397 338 397 q 375 397 400 428 q 425 458 425 506 q 425 560 387 595 q 350 630 293 630 q 212 630 161 577 q 111 524 111 439 q 111 352 163 295 q 215 238 294 238 q 324 238 354 248 q 385 258 416 278 q 431 317 453 343 q 475 369 490 369 q 492 369 493 368 q 495 368 495 366 q 495 359 486 345 q 478 331 462 312 l 462 302 q 462 281 467 240 q 472 200 472 180 q 472 94 412 47 q 353 0 244 0 q 167 0 122 31 q 77 61 77 111 q 77 138 90 157 q 102 176 119 176 q 122 176 131 173 q 133 172 134 172 z"},"q":{"x_min":0,"x_max":338,"ha":338,"o":"m 280 220 l 280 212 q 271 205 268 195 q 264 185 264 157 l 264 14 q 311 23 350 59 q 389 95 422 159 l 430 156 q 394 88 353 51 q 312 14 264 5 l 264 -190 l 199 -208 l 199 -200 q 208 -192 212 -179 q 216 -167 216 -145 l 216 55 q 197 27 174 14 q 150 0 124 0 q 92 0 73 22 q 53 44 53 80 q 53 129 89 167 q 125 206 170 206 q 183 206 197 202 q 211 197 226 188 z m 216 140 q 216 169 204 183 q 193 197 168 197 q 140 197 121 170 q 101 144 101 103 q 101 69 116 49 q 131 29 156 29 q 173 29 189 40 q 205 51 216 71 z"},"d":{"x_min":0,"x_max":338,"ha":338,"o":"m 216 177 q 203 188 192 192 q 180 197 168 197 q 140 197 121 170 q 101 144 101 103 q 101 69 116 49 q 130 30 156 30 q 171 30 187 41 q 202 51 216 71 z m 216 408 l 280 426 l 280 418 q 271 411 268 398 q 264 385 264 363 l 264 64 q 264 38 268 29 q 271 20 281 20 q 310 20 349 58 q 389 97 422 159 l 430 156 q 394 86 344 43 q 294 0 256 0 q 237 0 228 13 q 218 27 216 55 q 192 27 169 14 q 146 0 124 0 q 92 0 73 22 q 53 44 53 80 q 53 129 89 167 q 125 206 170 206 q 182 206 194 202 q 205 198 216 189 z"},"1":{"x_min":0,"x_max":310,"ha":310,"o":"m 140 -1 l 140 6 q 160 6 167 163 q 171 261 175 325 q 146 261 123 215 q 100 168 81 136 l 74 141 q 94 177 117 224 q 140 271 175 346 l 178 368 l 224 387 l 214 16 z"},"5":{"x_min":0,"x_max":310,"ha":310,"o":"m 73 221 q 80 255 83 296 q 86 337 86 389 l 95 389 l 94 352 q 116 372 129 379 q 143 387 153 387 q 159 387 187 374 q 215 360 228 360 q 236 360 244 365 q 251 369 264 383 l 269 378 q 254 355 235 342 q 217 329 200 329 q 184 329 159 344 q 133 358 127 358 q 124 358 117 355 q 111 352 95 342 q 95 328 93 305 q 90 283 83 227 q 100 237 117 242 q 135 247 153 247 q 202 247 235 217 q 268 187 268 141 q 268 82 229 41 q 190 0 136 0 q 96 0 68 24 q 39 47 39 78 q 39 93 50 105 q 62 117 73 117 l 76 117 l 104 109 q 94 101 89 89 q 83 78 83 67 q 83 44 101 28 q 119 11 144 11 q 176 11 198 36 q 219 62 219 99 q 219 153 189 189 q 160 225 116 225 q 107 225 99 223 q 90 220 82 216 q 77 194 72 186 q 67 178 60 178 q 57 178 55 180 q 54 182 54 186 q 54 194 59 203 q 63 211 73 221 z"}}}
